<svg width="17" height="20" viewBox="0 0 17 20" fill="none" xmlns="http://www.w3.org/2000/svg">
<path d="M3.1875 7.66667H4.1875V6.66667V4.7619C4.1875 3.80169 4.61209 2.85545 5.41096 2.13937C5.46532 2.09064 5.5211 2.04328 5.57821 1.99734C4.78328 2.71008 4.3125 3.70161 4.3125 4.7619V6.66667V7.66667H5.3125H11.6875H12.6875V6.66667V4.7619C12.6875 3.70159 12.2167 2.71005 11.4218 1.99731C11.479 2.04334 11.5348 2.09071 11.589 2.13937C11.9852 2.49446 12.2928 2.91003 12.5003 3.35909C12.7077 3.80774 12.8125 4.28405 12.8125 4.7619V6.66667V7.66667H13.8125H14.875C15.2065 7.66667 15.5054 7.78572 15.7101 7.9692C15.9112 8.14946 16 8.36898 16 8.57143V18.0952C16 18.2977 15.9112 18.5172 15.7101 18.6975C15.5054 18.8809 15.2065 19 14.875 19H2.125C1.79346 19 1.49456 18.8809 1.28986 18.6975C1.08876 18.5172 1 18.2977 1 18.0952V8.57143C1 8.36898 1.08876 8.14946 1.28986 7.9692C1.49456 7.78572 1.79346 7.66667 2.125 7.66667H3.1875ZM8.5 16.2381C9.29563 16.2381 10.0777 15.9558 10.6701 15.4248C11.266 14.8907 11.625 14.1412 11.625 13.3333C11.625 12.5254 11.266 11.776 10.6701 11.2418C10.0777 10.7109 9.29563 10.4286 8.5 10.4286C7.70437 10.4286 6.92227 10.7109 6.32993 11.2418C5.73401 11.776 5.375 12.5254 5.375 13.3333C5.375 14.1412 5.73401 14.8907 6.32993 15.4248C6.92227 15.9558 7.70437 16.2381 8.5 16.2381Z" fill="#F8F8F8" stroke="black" stroke-width="2"/>
</svg>
