<svg width="17" height="21" viewBox="0 0 17 21" fill="none" xmlns="http://www.w3.org/2000/svg">
<path d="M8.50012 19.5676L7.82821 18.9582C5.6339 16.9682 3.96377 15.1227 2.85464 13.4225C1.75689 11.7397 1.1251 10.1251 1.125 8.61037L8.50012 19.5676ZM8.50012 19.5676L9.17192 18.9581M8.50012 19.5676L9.17192 18.9581M9.17192 18.9581C11.3662 16.9674 13.0363 15.1216 14.1454 13.4215C15.2431 11.7387 15.875 10.1243 15.875 8.61C15.875 6.46525 15.1728 4.63736 13.7311 3.21342C12.3061 1.80602 10.5414 1.1008 8.50039 1.1H8.5M9.17192 18.9581L8.5 1.1M8.5 1.1C6.45808 1.1 4.69277 1.80527 3.26765 3.21362M8.5 1.1L3.26765 3.21362M16 8.61V8.60973C16.0006 6.22411 15.2357 4.41676 13.7637 3.0754C12.2329 1.6805 10.4921 1 8.5 1C6.50866 1 4.76819 1.68044 3.23735 3.0754C1.76534 4.41676 1.00009 6.2241 1 8.6096L16 8.61ZM16 8.61C16 10.0895 15.4033 11.797 14.0626 13.7549C12.8284 15.5574 10.9841 17.5349 8.50001 19.6856M16 8.61L8.50001 19.6856M3.26765 3.21362C1.82618 4.63813 1.12428 6.46588 1.125 8.61L3.26765 3.21362ZM8.50001 19.6856C6.01521 17.5342 4.17094 15.5568 2.93741 13.755C1.59766 11.798 1.00071 10.0904 1 8.61L8.50001 19.6856ZM8.5 7.3L8.5012 7.3C8.82032 7.29962 9.06763 7.40063 9.29734 7.62763C9.52672 7.85431 9.625 8.09394 9.625 8.4L9.625 8.40123C9.62537 8.70579 9.52775 8.94467 9.2984 9.17132C9.06866 9.39836 8.82061 9.5 8.5 9.5L8.4988 9.5C8.17968 9.50038 7.93237 9.39937 7.70266 9.17237C7.47327 8.94568 7.375 8.70606 7.375 8.4L7.375 8.39877C7.37463 8.09421 7.47225 7.85533 7.7016 7.62868C7.93134 7.40164 8.17939 7.3 8.5 7.3Z" fill="#F8F8F8" stroke="black" stroke-width="2"/>
</svg>
