<svg width="17" height="19" viewBox="0 0 17 19" fill="none" xmlns="http://www.w3.org/2000/svg">
<mask id="path-1-inside-1_448_7026" fill="white">
<path d="M0 9.5C0 9.75196 0.111942 9.99359 0.311199 10.1718C0.510457 10.3499 0.780707 10.45 1.0625 10.45H9.12687L6.68313 12.6255C6.58354 12.7138 6.50449 12.8189 6.45055 12.9347C6.39661 13.0504 6.36884 13.1746 6.36884 13.3C6.36884 13.4254 6.39661 13.5496 6.45055 13.6653C6.50449 13.7811 6.58354 13.8862 6.68313 13.9745C6.7819 14.0635 6.89941 14.1342 7.02889 14.1824C7.15836 14.2307 7.29724 14.2555 7.4375 14.2555C7.57776 14.2555 7.71664 14.2307 7.84611 14.1824C7.97559 14.1342 8.0931 14.0635 8.19188 13.9745L12.4419 10.1745C12.5386 10.0842 12.6144 9.97761 12.665 9.861C12.7713 9.62971 12.7713 9.37029 12.665 9.139C12.6144 9.02239 12.5386 8.91585 12.4419 8.8255L8.19188 5.0255C8.09281 4.93692 7.9752 4.86666 7.84577 4.81872C7.71633 4.77079 7.5776 4.74611 7.4375 4.74611C7.2974 4.74611 7.15867 4.77079 7.02923 4.81872C6.8998 4.86666 6.78219 4.93692 6.68313 5.0255C6.58406 5.11408 6.50548 5.21923 6.45186 5.33496C6.39825 5.45069 6.37065 5.57473 6.37065 5.7C6.37065 5.82527 6.39825 5.94931 6.45186 6.06504C6.50548 6.18077 6.58406 6.28592 6.68313 6.3745L9.12687 8.55H1.0625C0.780707 8.55 0.510457 8.65009 0.311199 8.82825C0.111942 9.00641 0 9.24804 0 9.5ZM13.8125 0H3.1875C2.34212 0 1.53137 0.300267 0.933597 0.834746C0.335825 1.36922 0 2.09413 0 2.85V5.7C0 5.95196 0.111942 6.19359 0.311199 6.37175C0.510457 6.54991 0.780707 6.65 1.0625 6.65C1.34429 6.65 1.61454 6.54991 1.8138 6.37175C2.01306 6.19359 2.125 5.95196 2.125 5.7V2.85C2.125 2.59804 2.23694 2.35641 2.4362 2.17825C2.63546 2.00009 2.90571 1.9 3.1875 1.9H13.8125C14.0943 1.9 14.3645 2.00009 14.5638 2.17825C14.7631 2.35641 14.875 2.59804 14.875 2.85V16.15C14.875 16.402 14.7631 16.6436 14.5638 16.8218C14.3645 16.9999 14.0943 17.1 13.8125 17.1H3.1875C2.90571 17.1 2.63546 16.9999 2.4362 16.8218C2.23694 16.6436 2.125 16.402 2.125 16.15V13.3C2.125 13.048 2.01306 12.8064 1.8138 12.6282C1.61454 12.4501 1.34429 12.35 1.0625 12.35C0.780707 12.35 0.510457 12.4501 0.311199 12.6282C0.111942 12.8064 0 13.048 0 13.3V16.15C0 16.9059 0.335825 17.6308 0.933597 18.1653C1.53137 18.6997 2.34212 19 3.1875 19H13.8125C14.6579 19 15.4686 18.6997 16.0664 18.1653C16.6642 17.6308 17 16.9059 17 16.15V2.85C17 2.09413 16.6642 1.36922 16.0664 0.834746C15.4686 0.300267 14.6579 0 13.8125 0Z"/>
</mask>
<path d="M0 9.5C0 9.75196 0.111942 9.99359 0.311199 10.1718C0.510457 10.3499 0.780707 10.45 1.0625 10.45H9.12687L6.68313 12.6255C6.58354 12.7138 6.50449 12.8189 6.45055 12.9347C6.39661 13.0504 6.36884 13.1746 6.36884 13.3C6.36884 13.4254 6.39661 13.5496 6.45055 13.6653C6.50449 13.7811 6.58354 13.8862 6.68313 13.9745C6.7819 14.0635 6.89941 14.1342 7.02889 14.1824C7.15836 14.2307 7.29724 14.2555 7.4375 14.2555C7.57776 14.2555 7.71664 14.2307 7.84611 14.1824C7.97559 14.1342 8.0931 14.0635 8.19188 13.9745L12.4419 10.1745C12.5386 10.0842 12.6144 9.97761 12.665 9.861C12.7713 9.62971 12.7713 9.37029 12.665 9.139C12.6144 9.02239 12.5386 8.91585 12.4419 8.8255L8.19188 5.0255C8.09281 4.93692 7.9752 4.86666 7.84577 4.81872C7.71633 4.77079 7.5776 4.74611 7.4375 4.74611C7.2974 4.74611 7.15867 4.77079 7.02923 4.81872C6.8998 4.86666 6.78219 4.93692 6.68313 5.0255C6.58406 5.11408 6.50548 5.21923 6.45186 5.33496C6.39825 5.45069 6.37065 5.57473 6.37065 5.7C6.37065 5.82527 6.39825 5.94931 6.45186 6.06504C6.50548 6.18077 6.58406 6.28592 6.68313 6.3745L9.12687 8.55H1.0625C0.780707 8.55 0.510457 8.65009 0.311199 8.82825C0.111942 9.00641 0 9.24804 0 9.5ZM13.8125 0H3.1875C2.34212 0 1.53137 0.300267 0.933597 0.834746C0.335825 1.36922 0 2.09413 0 2.85V5.7C0 5.95196 0.111942 6.19359 0.311199 6.37175C0.510457 6.54991 0.780707 6.65 1.0625 6.65C1.34429 6.65 1.61454 6.54991 1.8138 6.37175C2.01306 6.19359 2.125 5.95196 2.125 5.7V2.85C2.125 2.59804 2.23694 2.35641 2.4362 2.17825C2.63546 2.00009 2.90571 1.9 3.1875 1.9H13.8125C14.0943 1.9 14.3645 2.00009 14.5638 2.17825C14.7631 2.35641 14.875 2.59804 14.875 2.85V16.15C14.875 16.402 14.7631 16.6436 14.5638 16.8218C14.3645 16.9999 14.0943 17.1 13.8125 17.1H3.1875C2.90571 17.1 2.63546 16.9999 2.4362 16.8218C2.23694 16.6436 2.125 16.402 2.125 16.15V13.3C2.125 13.048 2.01306 12.8064 1.8138 12.6282C1.61454 12.4501 1.34429 12.35 1.0625 12.35C0.780707 12.35 0.510457 12.4501 0.311199 12.6282C0.111942 12.8064 0 13.048 0 13.3V16.15C0 16.9059 0.335825 17.6308 0.933597 18.1653C1.53137 18.6997 2.34212 19 3.1875 19H13.8125C14.6579 19 15.4686 18.6997 16.0664 18.1653C16.6642 17.6308 17 16.9059 17 16.15V2.85C17 2.09413 16.6642 1.36922 16.0664 0.834746C15.4686 0.300267 14.6579 0 13.8125 0Z" fill="#F8F8F8"/>
<path d="M0 9.5H-2H0ZM9.12687 10.45L10.4567 11.9438L14.3814 8.45H9.12687V10.45ZM6.68313 12.6255L8.01012 14.1219L8.01297 14.1193L6.68313 12.6255ZM6.68313 13.9745L8.02227 12.489L8.01622 12.4835L8.01012 12.4781L6.68313 13.9745ZM8.19188 13.9745L6.85879 12.4835L6.85273 12.489L8.19188 13.9745ZM12.4419 10.1745L13.775 11.6654L13.7912 11.6509L13.807 11.6361L12.4419 10.1745ZM12.665 9.861L10.8477 9.02599L10.8387 9.04555L10.8301 9.0653L12.665 9.861ZM12.665 9.139L10.8301 9.9347L10.8387 9.95445L10.8477 9.97401L12.665 9.139ZM12.4419 8.8255L13.807 7.36389L13.7912 7.34905L13.775 7.33456L12.4419 8.8255ZM8.19188 5.0255L6.8588 6.51644L8.19188 5.0255ZM6.37065 5.7H4.37065H6.37065ZM6.68313 6.3745L5.35005 7.86544L5.35328 7.86832L6.68313 6.3745ZM9.12687 8.55V10.55H14.3814L10.4567 7.05618L9.12687 8.55ZM3.1875 0V-2V0ZM0 2.85H-2H0ZM3.1875 1.9V3.9V1.9ZM0 13.3H-2H0ZM3.1875 19V21V19ZM13.8125 19V21V19ZM17 16.15H19H17ZM17 2.85H19H17ZM-2 9.5C-2 10.3592 -1.6163 11.1312 -1.02188 11.6627L1.64428 8.68081C1.84018 8.85597 2 9.14469 2 9.5H-2ZM-1.02188 11.6627C-0.434795 12.1876 0.318037 12.45 1.0625 12.45V8.45C1.24338 8.45 1.45571 8.51221 1.64428 8.68081L-1.02188 11.6627ZM1.0625 12.45H9.12687V8.45H1.0625V12.45ZM7.79703 8.95618L5.35328 11.1317L8.01297 14.1193L10.4567 11.9438L7.79703 8.95618ZM5.35613 11.1291C5.06052 11.3913 4.81216 11.7155 4.63769 12.0899L8.26341 13.7794C8.19683 13.9223 8.10656 14.0363 8.01012 14.1219L5.35613 11.1291ZM4.63769 12.0899C4.46282 12.4652 4.36884 12.8772 4.36884 13.3H8.36884C8.36884 13.4719 8.3304 13.6356 8.26341 13.7794L4.63769 12.0899ZM4.36884 13.3C4.36884 13.7228 4.46282 14.1348 4.63769 14.5101L8.26341 12.8206C8.3304 12.9644 8.36884 13.1281 8.36884 13.3H4.36884ZM4.63769 14.5101C4.81216 14.8845 5.06052 15.2087 5.35613 15.4709L8.01012 12.4781C8.10656 12.5637 8.19683 12.6777 8.26341 12.8206L4.63769 14.5101ZM5.34398 15.46C5.63729 15.7244 5.97436 15.9239 6.33074 16.0566L7.72703 12.3083C7.82446 12.3445 7.92651 12.4027 8.02227 12.489L5.34398 15.46ZM6.33074 16.0566C6.68701 16.1894 7.06258 16.2555 7.4375 16.2555V12.2555C7.53189 12.2555 7.62971 12.272 7.72703 12.3083L6.33074 16.0566ZM7.4375 16.2555C7.81242 16.2555 8.18799 16.1894 8.54426 16.0566L7.14797 12.3083C7.24529 12.272 7.34311 12.2555 7.4375 12.2555V16.2555ZM8.54426 16.0566C8.90064 15.9239 9.23771 15.7244 9.53102 15.46L6.85273 12.489C6.94849 12.4027 7.05054 12.3445 7.14797 12.3083L8.54426 16.0566ZM9.52495 15.4654L13.775 11.6654L11.1088 8.68356L6.8588 12.4836L9.52495 15.4654ZM13.807 11.6361C14.0959 11.3663 14.3356 11.0356 14.4999 10.6567L10.8301 9.0653C10.8933 8.91963 10.9813 8.80201 11.0767 8.71289L13.807 11.6361ZM14.4823 10.696C14.8322 9.93468 14.8322 9.06532 14.4823 8.30399L10.8477 9.97401C10.7104 9.67526 10.7104 9.32474 10.8477 9.02599L14.4823 10.696ZM14.4999 8.3433C14.3356 7.96441 14.0959 7.6337 13.807 7.36389L11.0767 10.2871C10.9813 10.198 10.8933 10.0804 10.8301 9.9347L14.4999 8.3433ZM13.775 7.33456L9.52495 3.53456L6.8588 6.51644L11.1088 10.3164L13.775 7.33456ZM9.52495 3.53456C9.23183 3.27247 8.89561 3.07478 8.54037 2.94322L7.15116 6.69423C7.0548 6.65854 6.95379 6.60137 6.8588 6.51644L9.52495 3.53456ZM8.54037 2.94322C8.18523 2.81169 7.81105 2.74611 7.4375 2.74611V6.74611C7.34415 6.74611 7.24743 6.72988 7.15116 6.69423L8.54037 2.94322ZM7.4375 2.74611C7.06395 2.74611 6.68977 2.81169 6.33463 2.94322L7.72384 6.69423C7.62757 6.72988 7.53085 6.74611 7.4375 6.74611V2.74611ZM6.33463 2.94322C5.97939 3.07478 5.64317 3.27247 5.35005 3.53456L8.0162 6.51644C7.92121 6.60137 7.8202 6.65854 7.72384 6.69423L6.33463 2.94322ZM5.35005 3.53456C5.0565 3.79703 4.81012 4.12087 4.63714 4.49426L8.26659 6.17566C8.20083 6.3176 8.11162 6.43113 8.0162 6.51644L5.35005 3.53456ZM4.63714 4.49426C4.46376 4.86852 4.37065 5.27898 4.37065 5.7H8.37065C8.37065 5.87049 8.33274 6.03287 8.26659 6.17566L4.63714 4.49426ZM4.37065 5.7C4.37065 6.12102 4.46376 6.53148 4.63714 6.90574L8.26659 5.22434C8.33274 5.36713 8.37065 5.52951 8.37065 5.7H4.37065ZM4.63714 6.90574C4.81012 7.27914 5.0565 7.60297 5.35005 7.86544L8.0162 4.88356C8.11162 4.96887 8.20083 5.0824 8.26659 5.22434L4.63714 6.90574ZM5.35328 7.86832L7.79703 10.0438L10.4567 7.05618L8.01297 4.88068L5.35328 7.86832ZM9.12687 6.55H1.0625V10.55H9.12687V6.55ZM1.0625 6.55C0.318037 6.55 -0.434795 6.81239 -1.02188 7.33731L1.64428 10.3192C1.45571 10.4878 1.24338 10.55 1.0625 10.55V6.55ZM-1.02188 7.33731C-1.6163 7.86879 -2 8.64078 -2 9.5H2C2 9.85531 1.84018 10.144 1.64428 10.3192L-1.02188 7.33731ZM13.8125 -2H3.1875V2H13.8125V-2ZM3.1875 -2C1.87945 -2 0.586119 -1.53744 -0.39948 -0.656196L2.26667 2.32569C2.47662 2.13797 2.80479 2 3.1875 2V-2ZM-0.39948 -0.656196C-1.39241 0.231605 -2 1.48687 -2 2.85H2C2 2.7014 2.06406 2.50684 2.26667 2.32569L-0.39948 -0.656196ZM-2 2.85V5.7H2V2.85H-2ZM-2 5.7C-2 6.55922 -1.6163 7.33121 -1.02188 7.86269L1.64428 4.88081C1.84018 5.05597 2 5.34469 2 5.7H-2ZM-1.02188 7.86269C-0.434795 8.38761 0.318037 8.65 1.0625 8.65V4.65C1.24338 4.65 1.45571 4.71221 1.64428 4.88081L-1.02188 7.86269ZM1.0625 8.65C1.80696 8.65 2.55979 8.38761 3.14688 7.86269L0.480724 4.88081C0.669292 4.71221 0.881622 4.65 1.0625 4.65V8.65ZM3.14688 7.86269C3.7413 7.33121 4.125 6.55922 4.125 5.7H0.125C0.125 5.34469 0.284819 5.05597 0.480724 4.88081L3.14688 7.86269ZM4.125 5.7V2.85H0.125V5.7H4.125ZM4.125 2.85C4.125 3.20531 3.96518 3.49403 3.76928 3.66919L1.10312 0.687307C0.508703 1.21879 0.125 1.99078 0.125 2.85H4.125ZM3.76928 3.66919C3.58071 3.83779 3.36838 3.9 3.1875 3.9V-0.1C2.44304 -0.1 1.69021 0.162386 1.10312 0.687307L3.76928 3.66919ZM3.1875 3.9H13.8125V-0.1H3.1875V3.9ZM13.8125 3.9C13.6316 3.9 13.4193 3.83779 13.2307 3.66919L15.8969 0.687307C15.3098 0.162385 14.557 -0.1 13.8125 -0.1V3.9ZM13.2307 3.66919C13.0348 3.49402 12.875 3.2053 12.875 2.85H16.875C16.875 1.99078 16.4913 1.21879 15.8969 0.687307L13.2307 3.66919ZM12.875 2.85V16.15H16.875V2.85H12.875ZM12.875 16.15C12.875 15.7947 13.0348 15.506 13.2307 15.3308L15.8969 18.3127C16.4913 17.7812 16.875 17.0092 16.875 16.15H12.875ZM13.2307 15.3308C13.4193 15.1622 13.6316 15.1 13.8125 15.1V19.1C14.557 19.1 15.3098 18.8376 15.8969 18.3127L13.2307 15.3308ZM13.8125 15.1H3.1875V19.1H13.8125V15.1ZM3.1875 15.1C3.36837 15.1 3.5807 15.1622 3.76928 15.3308L1.10312 18.3127C1.69021 18.8376 2.44304 19.1 3.1875 19.1V15.1ZM3.76928 15.3308C3.96518 15.506 4.125 15.7947 4.125 16.15H0.125C0.125 17.0092 0.508701 17.7812 1.10312 18.3127L3.76928 15.3308ZM4.125 16.15V13.3H0.125V16.15H4.125ZM4.125 13.3C4.125 12.4408 3.7413 11.6688 3.14688 11.1373L0.480724 14.1192C0.284819 13.944 0.125 13.6553 0.125 13.3H4.125ZM3.14688 11.1373C2.55979 10.6124 1.80696 10.35 1.0625 10.35V14.35C0.881622 14.35 0.669292 14.2878 0.480724 14.1192L3.14688 11.1373ZM1.0625 10.35C0.318037 10.35 -0.434795 10.6124 -1.02188 11.1373L1.64428 14.1192C1.45571 14.2878 1.24338 14.35 1.0625 14.35V10.35ZM-1.02188 11.1373C-1.6163 11.6688 -2 12.4408 -2 13.3H2C2 13.6553 1.84018 13.944 1.64428 14.1192L-1.02188 11.1373ZM-2 13.3V16.15H2V13.3H-2ZM-2 16.15C-2 17.5131 -1.39242 18.7684 -0.39948 19.6562L2.26667 16.6743C2.06407 16.4932 2 16.2986 2 16.15H-2ZM-0.39948 19.6562C0.586119 20.5374 1.87945 21 3.1875 21V17C2.80479 17 2.47662 16.862 2.26667 16.6743L-0.39948 19.6562ZM3.1875 21H13.8125V17H3.1875V21ZM13.8125 21C15.1205 21 16.4139 20.5374 17.3995 19.6562L14.7333 16.6743C14.5234 16.862 14.1952 17 13.8125 17V21ZM17.3995 19.6562C18.3924 18.7684 19 17.5131 19 16.15H15C15 16.2986 14.9359 16.4932 14.7333 16.6743L17.3995 19.6562ZM19 16.15V2.85H15V16.15H19ZM19 2.85C19 1.48687 18.3924 0.231606 17.3995 -0.656196L14.7333 2.32569C14.9359 2.50684 15 2.7014 15 2.85H19ZM17.3995 -0.656196C16.4139 -1.53744 15.1205 -2 13.8125 -2V2C14.1952 2 14.5234 2.13797 14.7333 2.32569L17.3995 -0.656196Z" fill="black" mask="url(#path-1-inside-1_448_7026)"/>
</svg>
